# xmcd
#
# Track frame offsets:
#	150
#	11775
#	24044
#	35855
#	47283
#	60844
#	76837
#	87347
#	99469
#	109856
#
# Disc length: 1584 seconds
#
# Revision: 0
# Processed by: cddbd v1.5.1PL0 Copyright (c) Steve Scherf et al.
# Submitted via: dBpowerAMP V4.0
#
DISCID=68062e0a
DTITLE=Margie LeBlanc - Traditional Country Selections
DYEAR=2004
DGENRE=Country
TTITLE0=My Shoes Keep Walking Back To You
TTITLE1=Crazy
TTITLE2=Singing The Blues
TTITLE3=Nobody But A Fool
TTITLE4=Tennessee Waltz
TTITLE5=Somebody Should Leave
TTITLE6=Strange
TTITLE7=Back Street Affair
TTITLE8=Then Only Then
TTITLE9=Blue Moon Of Kentucky
EXTD=
EXTT0=
EXTT1=
EXTT2=
EXTT3=
EXTT4=
EXTT5=
EXTT6=
EXTT7=
EXTT8=
EXTT9=
PLAYORDER=
